<svg width="102" height="30" viewBox="0 0 102 30" fill="none" xmlns="http://www.w3.org/2000/svg">
<g clip-path="url(#clip0_2_6)">
<path fill-rule="evenodd" clip-rule="evenodd" d="M91.9911 9.36932C95.4748 9.36932 98.8501 11.6933 100.395 15.5897C100.958 17.0078 101.24 18.4619 101.24 19.88C101.24 23.8157 99.2694 27.479 95.9645 29.1301C94.8033 29.7243 93.6098 30 92.4133 30C88.8944 30 85.5192 27.676 83.9738 23.7796C83.443 22.3616 83.1615 20.9041 83.1615 19.4467C83.1615 15.5503 85.0969 11.8509 88.437 10.1965C89.6011 9.64505 90.7946 9.36932 91.9911 9.36932ZM7.8561 0C8.13468 0 8.31063 0.118171 8.48951 0.354513L17.454 20.6668L26.4243 0.354513C26.6003 0.118171 26.7762 0 27.0577 0H33.6675C34.0223 0 34.1953 0.196952 34.1953 0.590855V1.77256C34.1953 2.16647 34.0223 2.36014 33.6675 2.36014C32.8962 2.36014 32.1572 2.5177 31.4887 2.95099V23.4241C31.4887 25.5512 32.3684 27.1629 34.0897 27.1629C34.4416 27.1629 34.6205 27.3631 34.6205 27.757V28.9355C34.6205 29.3294 34.4416 29.5263 34.0897 29.5263H25.4038C25.0871 29.5263 24.876 29.3294 24.876 28.9355V27.757C24.876 27.3631 25.0871 27.1629 25.4038 27.1629C27.1281 27.1629 27.9727 25.5512 27.9727 23.4241V8.50175L19.6709 27.3238C19.5653 27.5962 19.3571 27.757 19.0727 27.757H15.8353C15.5567 27.757 15.3456 27.5962 15.2048 27.3238L6.93825 8.50175V23.4241C6.93825 25.5512 7.78279 27.1629 9.50707 27.1629C9.82377 27.1629 10.0349 27.3631 10.0349 27.757V28.9355C10.0349 29.3294 9.82377 29.5263 9.50707 29.5263H0.818242C0.469281 29.5263 0.293335 29.3294 0.293335 28.9355V27.757C0.293335 27.3631 0.469281 27.1629 0.818242 27.1629C2.54252 27.1629 3.42225 25.5512 3.42225 23.4241V2.95099C2.75365 2.5177 2.01468 2.36014 1.24345 2.36014C0.891553 2.36014 0.715607 2.16647 0.715607 1.77256V0.590855C0.715607 0.196952 0.891553 0 1.24345 0H7.8561ZM43.2897 8.62254C43.3601 8.62254 43.3601 8.62254 43.3923 8.66193V23.4267C43.3923 25.5505 44.2398 27.1623 45.9611 27.1623H46.0696C46.4215 27.1623 46.5945 27.3625 46.5945 27.7564V28.9348C46.5945 29.3287 46.3482 29.5257 45.9963 29.5257H36.0465C35.6947 29.5257 35.4483 29.3287 35.4483 28.9348V27.7564C35.4483 27.3625 35.6213 27.1623 35.9732 27.1623H36.0465C37.7679 27.1623 38.6124 25.5505 38.5772 23.4267V19.2514C38.5772 19.1708 38.5769 19.0894 38.5762 19.0074L38.5748 18.8841C38.5497 17.1928 38.3045 15.2995 36.5011 15.0793C36.1492 15.0399 36.0788 14.8396 36.0788 14.5639V13.2279C36.0788 12.9128 36.2547 12.834 36.6066 12.7159C40.3015 11.3372 42.1284 9.80097 43.0785 8.69804C43.1137 8.66193 43.1841 8.62254 43.2193 8.62254H43.2897ZM55.744 8.62123C55.7822 8.62123 55.8174 8.62123 55.8174 8.66062L54.9728 13.975C56.2367 10.9453 58.6648 9.33026 61.1632 9.33026C63.342 9.33026 65.1337 10.7089 65.1337 13.3842C65.1337 14.5659 65.0663 15.5113 64.2217 15.9052L60.9169 17.402C60.8113 17.4775 60.7057 17.4775 60.6002 17.4775C60.389 17.4775 60.2835 17.3232 60.2835 17.1263C60.2835 17.0081 60.3187 16.8899 60.3538 16.7717C60.6324 16.0233 60.6705 15.3537 60.6705 14.8022C60.6705 13.3842 59.9668 12.7539 59.0196 12.7539C57.4009 12.7539 55.9904 14.7267 55.4977 16.1809V23.4254C55.4977 25.5492 56.3423 27.1642 58.0665 27.1642H58.1399C58.4888 27.1642 58.6648 27.3612 58.6648 27.7551V28.9368C58.6648 29.3307 58.4888 29.5244 58.1399 29.5244H47.9056C47.5508 29.5244 47.3749 29.3307 47.3749 28.9368V27.7551C47.3749 27.3612 47.5508 27.1642 47.9056 27.1642H47.9731C49.6974 27.1642 50.5419 25.5492 50.5419 23.4254L50.5418 18.3926L50.5414 18.2532L50.5403 18.1136C50.5207 16.1362 50.2936 14.162 48.4657 13.9356C48.1138 13.8995 48.0435 13.6993 48.0435 13.4236V12.0876C48.0435 11.7692 48.2194 11.6543 48.5713 11.5755C51.9143 10.9846 54.5857 9.44843 55.4977 8.70001C55.571 8.66062 55.6033 8.62123 55.6766 8.62123H55.744ZM73.585 8.62123C73.6231 8.62123 73.6583 8.62123 73.6583 8.66062L72.8138 13.975C74.0777 10.9453 76.5057 9.33026 79.0042 9.33026C81.183 9.33026 82.9747 10.7089 82.9747 13.3842C82.9747 14.5659 82.9073 15.5113 82.0627 15.9052L78.7578 17.402C78.6523 17.4775 78.5467 17.4775 78.4411 17.4775C78.23 17.4775 78.1244 17.3232 78.1244 17.1263C78.1244 17.0081 78.1596 16.8899 78.1948 16.7717C78.4734 16.0233 78.5115 15.3537 78.5115 14.8022C78.5115 13.3842 77.8077 12.7539 76.8606 12.7539C75.2419 12.7539 73.8313 14.7267 73.3387 16.1809V23.4254C73.3387 25.5492 74.1832 27.1642 75.9075 27.1642H75.9808C76.3298 27.1642 76.5057 27.3612 76.5057 27.7551V28.9368C76.5057 29.3307 76.3298 29.5244 75.9808 29.5244H65.7466C65.3918 29.5244 65.2158 29.3307 65.2158 28.9368V27.7551C65.2158 27.3612 65.3918 27.1642 65.7466 27.1642H65.814C67.5383 27.1642 68.3829 25.5492 68.3829 23.4254V18.4622L68.3823 18.2532C68.3715 16.2301 68.1776 14.1673 66.3067 13.9356C65.9548 13.8995 65.8844 13.6993 65.8844 13.4236V12.0876C65.8844 11.7692 66.0604 11.6543 66.4123 11.5755C69.7553 10.9846 72.4267 9.44843 73.3387 8.70001C73.412 8.66062 73.4443 8.62123 73.5176 8.62123H73.585ZM90.9002 12.5205C90.4427 12.5205 89.9501 12.6387 89.4926 12.8718C87.9443 13.6235 87.349 15.1958 87.349 17.0078C87.349 18.4619 87.7361 20.0802 88.3343 21.6131C89.4604 24.4099 91.3195 26.8488 93.5042 26.8488C93.9617 26.8488 94.4162 26.7306 94.9089 26.4975C96.422 25.7458 97.0202 24.1735 97.0202 22.3616C97.0202 20.9041 96.6331 19.253 96.0349 17.7562C94.944 14.9595 93.0438 12.5205 90.9002 12.5205ZM40.9349 0.393247C41.5654 0.393247 42.058 0.668979 42.6915 1.378C43.3249 2.08703 43.5712 2.6385 43.5712 3.34424C43.5712 4.05326 43.3249 4.6474 42.6915 5.31375C42.058 6.02278 41.5654 6.29851 40.9349 6.29851C40.3015 6.29851 39.7707 6.02278 39.1755 5.31375C38.5421 4.6474 38.2957 4.05326 38.2957 3.34424C38.2957 2.6385 38.5421 2.08703 39.1755 1.378C39.7707 0.668979 40.3015 0.393247 40.9349 0.393247Z" fill="#3A5F56"/>
</g>
<defs>
<clipPath id="clip0_2_6">
<rect width="100.947" height="30" fill="white" transform="translate(0.293335)"/>
</clipPath>
</defs>
</svg>
